<svg width="100%" height="500"  xmlns="http://www.w3.org/2000/svg" version="1.1">
 <defs>
    <radialGradient id="mountain" cx="50%" cy="50%" r="50%" fx="50%" fy="50%">
      <stop offset="0%" style="stop-color:#56aaff;stop-opacity:1" />
      <stop offset="100%" style="stop-color:#368adf;stop-opacity:1" />
    </radialGradient >

    <radialGradient id="lake" cx="50%" cy="50%" r="50%" fx="50%" fy="50%">
      <stop offset="0%" style="stop-color:#56aaff;stop-opacity:1" />
      <stop offset="100%" style="stop-color:#368adf;stop-opacity:1" />
    </radialGradient >

    <linearGradient id="snow" x1="0%" y1="100%" x2="0%" y2="0%">
      <stop offset="0%" style="stop-color:#F7F3E7;stop-opacity:1" />
      <stop offset="100%" style="stop-color:#FFFFFF;stop-opacity:1" />
    </linearGradient>

    <linearGradient id="building_off_white" x1="0%" y1="100%" x2="100%" y2="0%">
      <stop offset="0%" style="stop-color:#F7E9D6;stop-opacity:1" />
    </linearGradient>

    <linearGradient id="building_blue" x1="0%" y1="100%" x2="100%" y2="0%">
      <stop offset="0%" style="stop-color:#007790;stop-opacity:1" />
    </linearGradient> 

    <linearGradient id="building_light_blue" x1="0%" y1="100%" x2="100%" y2="0%">
      <stop offset="0%" style="stop-color:#87CEFA;stop-opacity:1" />
    </linearGradient> 

    <linearGradient id="building_dark_blue" x1="0%" y1="100%" x2="100%" y2="0%">
      <stop offset="0%" style="stop-color:#505E69;stop-opacity:1" />
    </linearGradient>

    <linearGradient id="building_grey" x1="0%" y1="100%" x2="100%" y2="0%">
      <stop offset="0%" style="stop-color:#A598A1;stop-opacity:1" />
    </linearGradient>

    <linearGradient id="building_brown" x1="0%" y1="100%" x2="100%" y2="0%">
      <stop offset="0%" style="stop-color:#926F5B;stop-opacity:1" />
    </linearGradient>

    <linearGradient id="building_dark_brown" x1="0%" y1="100%" x2="100%" y2="0%">
      <stop offset="0%" style="stop-color:#654321;stop-opacity:1" />
    </linearGradient>

    <radialGradient id="window" cx="50%" cy="50%" r="50%" fx="50%" fy="50%">
      <stop offset="0%" style="stop-color:#00A3D3;stop-opacity:1" />
      <stop offset="100%" style="stop-color:#00A3D3;stop-opacity:1" />
    </radialGradient >

    <pattern id="HillsA" width="800" height="500" patternUnits="userSpaceOnUse">
      <path d="m-8,160.886993c0,-17.862 99.334602,-21.583984 168.947998,-65.839996c69.613998,-44.256012 129.506989,-86.046997 166.623016,-86.046997c37.115997,0 81.473999,56.479004 151.551971,90.423004c70.078003,33.945007 165.877014,41.354004 165.877014,59.216003l-653,2.247986z" fill="#9AC07E"/>
    </pattern>

    <pattern id="HillsB" x="200" width="800" y="15" height="500" patternUnits="userSpaceOnUse">
      <path d="m82.499985,156.443481c0,-17.862 79.711075,-21.583954 135.572357,-65.839966c55.861771,-44.256027 104.725357,-70.047012 134.50914,-70.047012c29.783722,0 62.169037,57.479019 120.810455,74.423019c58.641449,16.944 133.108063,41.354004 133.108063,59.215973l-524.000015,2.247986z"  fill="#608641"/>
    </pattern>

    <pattern id="HillsC" x="-500"  width="1000" height="500" patternUnits="userSpaceOnUse">
      <path d="m310.5,186.443481c0,-17.862 99.334595,-21.583954 168.947998,-65.839966c69.614014,-44.256012 130.506958,-70.046997 167.623047,-70.046997c37.115967,0 77.473999,57.479004 150.551941,74.423004c73.077942,16.944 165.877014,41.354004 165.877014,59.215973l-653,2.247986z" fill="#D1E2A9"/>
    </pattern>

    <pattern id="HillsD" x="100"  width="1000" height="500" patternUnits="userSpaceOnUse">
      <path d="m310.5,186.443481c0,-17.862 99.334595,-21.583954 168.947998,-65.839966c69.614014,-44.256012 130.506958,-70.046997 167.623047,-70.046997c37.115967,0 77.473999,57.479004 150.551941,74.423004c73.077942,16.944 165.877014,41.354004 165.877014,59.215973l-653,2.247986z" fill="#D1E2A9"/>
    </pattern>

    <pattern id="Windows_off_white" width="11" height="11" patternUnits="userSpaceOnUse">
        <rect height="11" width="11" y="0" x="0"  fill="url(#building_off_white)" />
        <rect height="4" width="4" y="4" x="4"  fill="url(#window)" />
    </pattern>

    <pattern id="Windows_dark_blue" width="11" height="11" patternUnits="userSpaceOnUse">
        <rect height="11" width="11" y="0" x="0"  fill="url(#building_dark_blue)" />
        <rect height="4" width="4" y="4" x="4"  fill="url(#window)" />
    </pattern>

    <pattern id="Windows_blue" width="11" height="11" patternUnits="userSpaceOnUse">
        <rect height="11" width="11" y="0" x="0"  fill="url(#building_blue)" />
        <rect height="4" width="4" y="4" x="4"  fill="url(#window)" />
    </pattern>

    <pattern id="Windows_light_blue" width="11" height="11" patternUnits="userSpaceOnUse">
        <rect height="11" width="11" y="0" x="0"  fill="url(#building_light_blue)" />
        <rect height="4" width="4" y="4" x="4"  fill="url(#window)" />
    </pattern>

    <pattern id="Windows_brown" width="11" height="11" patternUnits="userSpaceOnUse">
        <rect height="11" width="11" y="0" x="0"  fill="url(#building_brown)" />
        <rect height="4" width="4" y="4" x="4"  fill="url(#window)" />
    </pattern>

    <pattern id="Windows_dark_brown" width="11" height="11" patternUnits="userSpaceOnUse">
        <rect height="11" width="11" y="0" x="0"  fill="url(#building_dark_brown)" />
        <rect height="4" width="4" y="4" x="4"  fill="url(#window)" />
    </pattern>

    <pattern id="Windows_grey" width="11" height="11" patternUnits="userSpaceOnUse">
        <rect height="11" width="11" y="0" x="0"  fill="url(#building_grey)" />
        <rect height="4" width="4" y="4" x="4"  fill="url(#window)" />
    </pattern>
  </defs>

  <g transform="scale(1, 2) translate(0, -120)">
    <rect height="150" width="70" y="220" x="86" fill="url(#Windows_off_white)" /> <!--A-->

    <rect height="133" width="40" y="240" x="52" fill="url(#Windows_blue)" /> <!--B-->

    <rect height="200" width="110" y="140" x="210" fill="url(#Windows_blue)" /> <!--D-->

    <rect height="170" width="88" y="200" x="144" fill="url(#Windows_dark_blue)" /> <!--C-->

    <rect height="210" width="120" y="130" x="440" fill="url(#Windows_grey)" /> <!--G-->

    <rect height="180" width="150" y="165" x="530" fill="url(#Windows_dark_blue)" /> <!--I-->
    <rect height="20" width="40" y="145" x="590" fill="url(#building_dark_blue)" /> <!--I top-->

    <rect height="80" width="150" y="270" x="560" fill="url(#building_blue)" /> <!--J-->

    <rect height="80" width="122" y="275" x="363" fill="url(#Windows_dark_brown)" /> <!--F-->

    <rect height="170" width="50" y="210" x="313" fill="url(#building_grey)" /> <!--E-->
    <polygon points="313,210 363,210 338,190" fill="url(#building_grey)" /> <!--E top-->

    <rect height="40" width="110" y="300" x="470" fill="url(#building_brown)" /> <!--H-->

    <rect height="139" width="165" y="220" x="650" fill="url(#Windows_light_blue)" /> <!--K-->

    <rect height="200" width="112" y="153" x="748" fill="url(#Windows_blue)" /> <!--L-->
    <rect height="20" width="79" y="133" x="764" fill="url(#Windows_blue)" /> <!--L top-->
    <polygon points="764,133 845,133 855,128 754,128" fill="url(#building_light_blue)" /> <!--L ring-->

    <rect height="200" width="180" y="253" x="868" fill="url(#Windows_brown)" /> <!--M-->
    <rect height="43" width="180" y="210" x="868" fill="url(#Windows_off_white)" /> <!--M top-->
  </g>

  <g transform="translate(0, 390) scale(1, 0.6)">
    <rect fill="url(#HillsA)" width="100%" height="500"/>
    <rect fill="url(#HillsB)" width="100%" height="500"/>
  </g>

  <g transform="scale(1, 1) translate(0, -300)">
    <rect height="40" width="100%" y="760" x="0" fill="url(#lake)" />
  </g>

  <g transform="translate(0, 390) scale(1, 0.6)">
    <rect fill="url(#HillsC)" width="100%" height="500"/>
    <rect fill="url(#HillsD)" width="100%" height="500"/>
  </g>

</svg>